# xmcd
#
# Track frame offsets: 
#        150
#        22868
#        48876
#        66585
#        92677
#        111692
#        142819
#        161282
#        186698
#        206086
#        223804
#
# Disc length: 3261 seconds
#
# Revision: 1
# Processed by: cddbd v1.5.2PL0 Copyright (c) Steve Scherf et al.
# Submitted via: ExactAudioCopy v0.99pb5
#
DISCID=a50cbb0b
DTITLE=Muse - The Resistance
DYEAR=2009
DGENRE=Alternative
TTITLE0=Uprising
TTITLE1=Resistance
TTITLE2=Undisclosed Desires
TTITLE3=Unated States Of Eurasia
TTITLE4=Guiding Light
TTITLE5=Unnatural Selection
TTITLE6=Mk Ultra
TTITLE7=I Belong To You
TTITLE8=Exogenesis: Symphony Pt.1 (Overture)
TTITLE9=Exogenesis: Symphony Pt.2 (Cross-Polination)
TTITLE10=Exogenesis: Symphony Pt.3 (Redemption)
EXTD=
EXTT0=
EXTT1=
EXTT2=
EXTT3=
EXTT4=
EXTT5=
EXTT6=
EXTT7=
EXTT8=
EXTT9=
EXTT10=
PLAYORDER=
